<svg xmlns="http://www.w3.org/2000/svg" version="1.1" xmlns:xlink="http://www.w3.org/1999/xlink" width="512" height="512" x="0" y="0" viewBox="0 0 682.667 682.667" style="enable-background:new 0 0 512 512" xml:space="preserve" class=""><g><defs><clipPath id="a" clipPathUnits="userSpaceOnUse"><path d="M0 512h512V0H0Z" fill="#000000" opacity="1" data-original="#000000"></path></clipPath></defs><g clip-path="url(#a)" transform="matrix(1.33333 0 0 -1.33333 0 682.667)"><path d="M0 0h-242.564c-18.576 0-33.633 15.058-33.633 33.633v366.209c0 18.574 15.057 33.632 33.633 33.632H0c18.575 0 33.633-15.058 33.633-33.632V33.633C33.633 15.058 18.575 0 0 0" style="fill-opacity:1;fill-rule:nonzero;stroke:none" transform="translate(318.503 68.526)" fill="#fab05f" data-original="#fab05f" class=""></path><path d="M0 0h-242.564c-18.576 0-33.633 15.058-33.633 33.633v366.209c0 18.574 15.057 33.632 33.633 33.632H0c18.575 0 33.633-15.058 33.633-33.632V33.633C33.633 15.058 18.575 0 0 0Z" style="stroke-width:20;stroke-linecap:round;stroke-linejoin:round;stroke-miterlimit:10;stroke-dasharray:none;stroke-opacity:1" transform="translate(318.503 68.526)" fill="none" stroke="#000000" stroke-width="20" stroke-linecap="round" stroke-linejoin="round" stroke-miterlimit="10" stroke-dasharray="none" stroke-opacity="" data-original="#000000" class=""></path><path d="M0 0h-264.364c-12.555 0-22.733-10.178-22.733-22.732v-331.131a52.32 52.32 0 0 1 16.08-37.736l40.263-38.661a52.315 52.315 0 0 1 36.234-14.58H0c12.555 0 22.732 10.178 22.732 22.733v399.375C22.732-10.178 12.555 0 0 0" style="fill-opacity:1;fill-rule:nonzero;stroke:none" transform="translate(378.401 454.84)" fill="#ffd866" data-original="#ffd866" class=""></path><path d="M0 0a52.306 52.306 0 0 0-14.212 23.928H48.2c8.883 0 16.084-7.201 16.084-16.084v-59.635a52.298 52.298 0 0 0-24.02 13.129z" style="fill-opacity:1;fill-rule:nonzero;stroke:none" transform="translate(107.385 63.241)" fill="#fab05f" data-original="#fab05f" class=""></path><path d="M0 0v-57.023a52.317 52.317 0 0 1 16.08-37.736l40.263-38.661A52.314 52.314 0 0 1 92.577-148h194.52c12.554 0 22.732 10.178 22.732 22.732v399.375c0 12.555-10.178 22.733-22.732 22.733H22.732C10.178 296.84 0 286.662 0 274.107V80" style="stroke-width:20;stroke-linecap:round;stroke-linejoin:round;stroke-miterlimit:10;stroke-dasharray:none;stroke-opacity:1" transform="translate(91.305 158)" fill="none" stroke="#000000" stroke-width="20" stroke-linecap="round" stroke-linejoin="round" stroke-miterlimit="10" stroke-dasharray="none" stroke-opacity="" data-original="#000000" class=""></path><path d="M0 0a52.306 52.306 0 0 0-14.212 23.928H48.2c8.883 0 16.084-7.201 16.084-16.084v-59.635a52.298 52.298 0 0 0-24.02 13.129z" style="stroke-width:20;stroke-linecap:round;stroke-linejoin:round;stroke-miterlimit:10;stroke-dasharray:none;stroke-opacity:1" transform="translate(107.385 63.241)" fill="none" stroke="#000000" stroke-width="20" stroke-linecap="round" stroke-linejoin="round" stroke-miterlimit="10" stroke-dasharray="none" stroke-opacity="" data-original="#000000" class=""></path><path d="M0 0h-.001c-85.814-90.874-219.198-90.874-305.013 0-7.621 8.07-7.621 21.753 0 29.823 85.815 90.874 219.199 90.874 305.013 0H0C7.621 21.753 7.621 8.07 0 0" style="fill-opacity:1;fill-rule:nonzero;stroke:none" transform="translate(463.978 172.285)" fill="#d6effb" data-original="#d6effb"></path><path d="M0 0h-.001c-85.814-90.874-219.198-90.874-305.013 0-7.621 8.07-7.621 21.753 0 29.823 85.815 90.874 219.199 90.874 305.013 0H0C7.621 21.753 7.621 8.07 0 0Z" style="stroke-width:20;stroke-linecap:round;stroke-linejoin:round;stroke-miterlimit:10;stroke-dasharray:none;stroke-opacity:1" transform="translate(463.978 172.285)" fill="none" stroke="#000000" stroke-width="20" stroke-linecap="round" stroke-linejoin="round" stroke-miterlimit="10" stroke-dasharray="none" stroke-opacity="" data-original="#000000" class=""></path><path d="M0 0c0-45.877-37.19-83.067-83.066-83.067-45.877 0-83.068 37.19-83.068 83.067 0 45.876 37.191 83.066 83.068 83.066C-37.19 83.066 0 45.876 0 0" style="fill-opacity:1;fill-rule:nonzero;stroke:none" transform="translate(394.538 187.197)" fill="#00b7ec" data-original="#00b7ec"></path><path d="M0 0c0-45.877-37.19-83.067-83.066-83.067-45.877 0-83.068 37.19-83.068 83.067 0 45.876 37.191 83.066 83.068 83.066C-37.19 83.066 0 45.876 0 0Z" style="stroke-width:20;stroke-linecap:round;stroke-linejoin:round;stroke-miterlimit:10;stroke-dasharray:none;stroke-opacity:1" transform="translate(394.538 187.197)" fill="none" stroke="#000000" stroke-width="20" stroke-linecap="round" stroke-linejoin="round" stroke-miterlimit="10" stroke-dasharray="none" stroke-opacity="" data-original="#000000" class=""></path><path d="M0 0c0-22.459-18.206-40.665-40.664-40.665-22.459 0-40.664 18.206-40.664 40.665 0 22.458 18.205 40.664 40.664 40.664C-18.206 40.664 0 22.458 0 0" style="fill-opacity:1;fill-rule:nonzero;stroke:none" transform="translate(352.136 187.197)" fill="#d6effb" data-original="#d6effb"></path><path d="M0 0c0-22.459-18.206-40.665-40.664-40.665-22.459 0-40.664 18.206-40.664 40.665 0 22.458 18.205 40.664 40.664 40.664C-18.206 40.664 0 22.458 0 0Z" style="stroke-width:20;stroke-linecap:round;stroke-linejoin:round;stroke-miterlimit:10;stroke-dasharray:none;stroke-opacity:1" transform="translate(352.136 187.197)" fill="none" stroke="#000000" stroke-width="20" stroke-linecap="round" stroke-linejoin="round" stroke-miterlimit="10" stroke-dasharray="none" stroke-opacity="" data-original="#000000" class=""></path><path d="M0 0h176" style="stroke-width:20;stroke-linecap:round;stroke-linejoin:round;stroke-miterlimit:10;stroke-dasharray:none;stroke-opacity:1" transform="translate(150.414 398)" fill="none" stroke="#000000" stroke-width="20" stroke-linecap="round" stroke-linejoin="round" stroke-miterlimit="10" stroke-dasharray="none" stroke-opacity="" data-original="#000000" class=""></path><path d="M0 0h127.248" style="stroke-width:20;stroke-linecap:round;stroke-linejoin:round;stroke-miterlimit:10;stroke-dasharray:none;stroke-opacity:1" transform="translate(150.414 343)" fill="none" stroke="#000000" stroke-width="20" stroke-linecap="round" stroke-linejoin="round" stroke-miterlimit="10" stroke-dasharray="none" stroke-opacity="" data-original="#000000" class=""></path><path d="M0 0h54.431" style="stroke-width:20;stroke-linecap:round;stroke-linejoin:round;stroke-miterlimit:10;stroke-dasharray:none;stroke-opacity:1" transform="translate(150.414 288)" fill="none" stroke="#000000" stroke-width="20" stroke-linecap="round" stroke-linejoin="round" stroke-miterlimit="10" stroke-dasharray="none" stroke-opacity="" data-original="#000000" class=""></path><path d="M0 0v0" style="stroke-width:20;stroke-linecap:round;stroke-linejoin:round;stroke-miterlimit:10;stroke-dasharray:none;stroke-opacity:1" transform="translate(91.305 198)" fill="none" stroke="#000000" stroke-width="20" stroke-linecap="round" stroke-linejoin="round" stroke-miterlimit="10" stroke-dasharray="none" stroke-opacity="" data-original="#000000" class=""></path></g></g></svg>